<svg width="37" height="13" viewBox="0 0 37 13" fill="none" xmlns="http://www.w3.org/2000/svg">
<rect width="37" height="13" rx="2" fill="#98E598"/>
<path d="M7.32102 9.5H6.19602L8.24432 3.68182H9.54545L11.5966 9.5H10.4716L8.91761 4.875H8.87216L7.32102 9.5ZM7.35795 7.21875H10.4261V8.06534H7.35795V7.21875ZM14.0881 9.58523C13.6525 9.58523 13.2784 9.48958 12.9659 9.2983C12.6553 9.10701 12.4157 8.8428 12.2472 8.50568C12.0805 8.16667 11.9972 7.77652 11.9972 7.33523C11.9972 6.89205 12.0824 6.50095 12.2528 6.16193C12.4233 5.82102 12.6638 5.55587 12.9744 5.36648C13.2869 5.17519 13.6563 5.07955 14.0824 5.07955C14.4366 5.07955 14.75 5.14489 15.0227 5.27557C15.2973 5.40436 15.5161 5.58712 15.679 5.82386C15.8419 6.05871 15.9347 6.33333 15.9574 6.64773H14.9744C14.9347 6.4375 14.84 6.26231 14.6903 6.12216C14.5426 5.98011 14.3447 5.90909 14.0966 5.90909C13.8864 5.90909 13.7017 5.96591 13.5426 6.07955C13.3835 6.19129 13.2595 6.35227 13.1705 6.5625C13.0833 6.77273 13.0398 7.02462 13.0398 7.31818C13.0398 7.61553 13.0833 7.87121 13.1705 8.08523C13.2576 8.29735 13.3797 8.46117 13.5369 8.5767C13.696 8.69034 13.8826 8.74716 14.0966 8.74716C14.2481 8.74716 14.3835 8.71875 14.5028 8.66193C14.6241 8.60322 14.7254 8.51894 14.8068 8.40909C14.8883 8.29924 14.9441 8.16572 14.9744 8.00852H15.9574C15.9328 8.31723 15.8419 8.59091 15.6847 8.82955C15.5275 9.06629 15.3134 9.25189 15.0426 9.38636C14.7718 9.51894 14.4536 9.58523 14.0881 9.58523ZM18.9808 5.13636V5.93182H16.4723V5.13636H18.9808ZM17.0916 4.09091H18.12V8.1875C18.12 8.32576 18.1409 8.43182 18.1825 8.50568C18.2261 8.57765 18.2829 8.62689 18.353 8.65341C18.4231 8.67992 18.5007 8.69318 18.5859 8.69318C18.6503 8.69318 18.709 8.68845 18.7621 8.67898C18.817 8.66951 18.8587 8.66098 18.8871 8.65341L19.0604 9.45739C19.0054 9.47633 18.9268 9.49716 18.8246 9.51989C18.7242 9.54261 18.6011 9.55587 18.4553 9.55966C18.1977 9.56723 17.9657 9.52841 17.7592 9.44318C17.5528 9.35606 17.389 9.22159 17.2678 9.03977C17.1484 8.85795 17.0897 8.63068 17.0916 8.35795V4.09091ZM19.8409 9.5V5.13636H20.8693V9.5H19.8409ZM20.358 4.51705C20.1951 4.51705 20.0549 4.46307 19.9375 4.35511C19.8201 4.24526 19.7614 4.11364 19.7614 3.96023C19.7614 3.80492 19.8201 3.6733 19.9375 3.56534C20.0549 3.45549 20.1951 3.40057 20.358 3.40057C20.5227 3.40057 20.6629 3.45549 20.7784 3.56534C20.8958 3.6733 20.9545 3.80492 20.9545 3.96023C20.9545 4.11364 20.8958 4.24526 20.7784 4.35511C20.6629 4.46307 20.5227 4.51705 20.358 4.51705ZM25.8246 5.13636L24.2706 9.5H23.1342L21.5803 5.13636H22.6768L23.6797 8.37784H23.7251L24.7308 5.13636H25.8246ZM28.3196 9.58523C27.8821 9.58523 27.5043 9.49432 27.1861 9.3125C26.8698 9.12879 26.6264 8.86932 26.456 8.53409C26.2855 8.19697 26.2003 7.80019 26.2003 7.34375C26.2003 6.89489 26.2855 6.50095 26.456 6.16193C26.6283 5.82102 26.8688 5.55587 27.1776 5.36648C27.4863 5.17519 27.849 5.07955 28.2656 5.07955C28.5346 5.07955 28.7884 5.12311 29.027 5.21023C29.2675 5.29545 29.4796 5.42803 29.6634 5.60795C29.849 5.78788 29.9948 6.01705 30.1009 6.29545C30.2069 6.57197 30.2599 6.90152 30.2599 7.28409V7.59943H26.6832V6.90625H29.2741C29.2723 6.70928 29.2296 6.53409 29.1463 6.38068C29.063 6.22538 28.9465 6.10322 28.7969 6.0142C28.6491 5.92519 28.4768 5.88068 28.2798 5.88068C28.0696 5.88068 27.8849 5.93182 27.7259 6.03409C27.5668 6.13447 27.4427 6.26705 27.3537 6.43182C27.2666 6.5947 27.2221 6.77367 27.2202 6.96875V7.57386C27.2202 7.82765 27.2666 8.04545 27.3594 8.22727C27.4522 8.4072 27.5819 8.54545 27.7486 8.64205C27.9152 8.73674 28.1103 8.78409 28.3338 8.78409C28.4834 8.78409 28.6188 8.76326 28.7401 8.72159C28.8613 8.67803 28.9664 8.61458 29.0554 8.53125C29.1444 8.44792 29.2116 8.3447 29.2571 8.22159L30.2173 8.32955C30.1567 8.58333 30.0412 8.80492 29.8707 8.99432C29.7022 9.18182 29.4863 9.32765 29.223 9.43182C28.9598 9.53409 28.6586 9.58523 28.3196 9.58523Z" fill="#006900"/>
</svg>
