<svg width="20" height="20" viewBox="0 0 20 20" fill="none" xmlns="http://www.w3.org/2000/svg">
<path d="M15.0333 11.2918C14.6833 11.6335 14.4833 12.1252 14.5333 12.6502C14.6083 13.5502 15.4333 14.2085 16.3333 14.2085H17.9167V15.2002C17.9167 16.9252 16.5083 18.3335 14.7833 18.3335H6.35835C6.61668 18.1168 6.84168 17.8502 7.01668 17.5502C7.32501 17.0502 7.50001 16.4585 7.50001 15.8335C7.50001 13.9918 6.00834 12.5002 4.16668 12.5002C3.38334 12.5002 2.65834 12.7752 2.08334 13.2335V9.59184C2.08334 7.86684 3.49167 6.4585 5.21667 6.4585H14.7833C16.5083 6.4585 17.9167 7.86684 17.9167 9.59184V10.7918H16.2333C15.7667 10.7918 15.3417 10.9752 15.0333 11.2918Z" stroke="black" stroke-linecap="round" stroke-linejoin="round"/>
<path d="M2.08334 10.3416V6.5333C2.08334 5.54163 2.69167 4.65826 3.61667 4.30826L10.2333 1.80826C11.2667 1.41659 12.375 2.18329 12.375 3.29162V6.45828" stroke="black" stroke-linecap="round" stroke-linejoin="round"/>
<path d="M18.799 11.642V13.3587C18.799 13.817 18.4323 14.192 17.9657 14.2086H16.3324C15.4324 14.2086 14.6074 13.5503 14.5324 12.6503C14.4824 12.1253 14.6823 11.6336 15.0323 11.292C15.3407 10.9753 15.7657 10.792 16.2323 10.792H17.9657C18.4323 10.8087 18.799 11.1836 18.799 11.642Z" stroke="black" stroke-linecap="round" stroke-linejoin="round"/>
<path d="M5.83334 10H11.6667" stroke="black" stroke-linecap="round" stroke-linejoin="round"/>
<path d="M7.50001 15.8333C7.50001 16.4583 7.32501 17.05 7.01668 17.55C6.84168 17.85 6.61668 18.1167 6.35835 18.3333C5.77501 18.8583 5.00834 19.1667 4.16668 19.1667C2.95001 19.1667 1.89168 18.5167 1.31668 17.55C1.00835 17.05 0.833344 16.4583 0.833344 15.8333C0.833344 14.7833 1.31668 13.8417 2.08334 13.2333C2.65834 12.775 3.38334 12.5 4.16668 12.5C6.00834 12.5 7.50001 13.9917 7.50001 15.8333Z" stroke="black" stroke-miterlimit="10" stroke-linecap="round" stroke-linejoin="round"/>
<path d="M2.86786 15.8328L3.69285 16.6578L5.46785 15.0161" stroke="black" stroke-linecap="round" stroke-linejoin="round"/>
</svg>
