<svg width="20" height="17" viewBox="0 0 20 17" fill="none" xmlns="http://www.w3.org/2000/svg">
<path d="M12.625 3.23786C12.625 4.62474 11.4635 5.77358 10 5.77358C8.53649 5.77358 7.375 4.62474 7.375 3.23786C7.375 1.85099 8.53649 0.702148 10 0.702148C11.4635 0.702148 12.625 1.85099 12.625 3.23786Z" stroke="black" stroke-linecap="round"/>
<path d="M12.0293 1.43265C12.2847 1.137 12.6229 0.916325 13.0056 0.798392C13.3884 0.680435 13.7983 0.670675 14.1867 0.77038C14.5751 0.870068 14.9244 1.07459 15.1947 1.35808C15.4648 1.64143 15.6448 1.99195 15.7159 2.36806C15.7869 2.7441 15.7465 3.13219 15.5987 3.48757C15.4508 3.84309 15.201 4.15255 14.8763 4.37837C14.5515 4.60429 14.1657 4.73665 13.7641 4.75846C13.3624 4.78028 12.9634 4.69052 12.6139 4.50078" stroke="black"/>
<path d="M7.94697 1.40566C7.68254 1.11017 7.33435 0.89335 6.94314 0.783299C6.55185 0.673227 6.13588 0.675173 5.74574 0.788876C5.35568 0.902557 5.00971 1.12258 4.74827 1.42046C4.48697 1.71819 4.32101 2.08116 4.26824 2.46537C4.21547 2.84952 4.27777 3.24076 4.44862 3.59265C4.61954 3.9447 4.8925 4.24359 5.23675 4.45174C5.58113 4.65998 5.98138 4.76796 6.3893 4.76139C6.79722 4.75482 7.19341 4.63401 7.53028 4.41494" stroke="black"/>
<path d="M10 7.7915C14.26 7.7915 15.3524 11.1483 15.6326 12.8699C15.7213 13.415 15.2815 13.8629 14.7292 13.8629H5.27084C4.71856 13.8629 4.27876 13.415 4.36746 12.8699C4.6476 11.1483 5.74004 7.7915 10 7.7915Z" stroke="black" stroke-linecap="round"/>
<path d="M17.6033 10.7535L17.119 10.8777V10.8777L17.6033 10.7535ZM11.1324 7.87862L10.7681 7.53619L10.1233 8.2222L11.0527 8.37223L11.1324 7.87862ZM15.3972 11.8393L14.918 11.982L15.0244 12.3393H15.3972V11.8393ZM13.6458 7.27979C14.7333 7.27979 15.4925 7.79842 16.044 8.51427C16.6068 9.24468 16.9358 10.1635 17.119 10.8777L18.0877 10.6292C17.8895 9.85677 17.5178 8.78871 16.8362 7.90396C16.1433 7.00464 15.1145 6.27979 13.6458 6.27979V7.27979ZM11.4967 8.22106C12.0195 7.66485 12.7073 7.27979 13.6458 7.27979V6.27979C12.39 6.27979 11.4495 6.81114 10.7681 7.53619L11.4967 8.22106ZM11.0527 8.37223C13.4661 8.76184 14.48 10.5114 14.918 11.982L15.8764 11.6966C15.384 10.0432 14.1637 7.8615 11.2121 7.38501L11.0527 8.37223ZM16.7042 11.3393H15.3972V12.3393H16.7042V11.3393ZM17.119 10.8777C17.1738 11.0913 17.0178 11.3393 16.7042 11.3393V12.3393C17.5763 12.3393 18.3275 11.564 18.0877 10.6292L17.119 10.8777Z" fill="black"/>
<path d="M8.86762 7.87862L8.94731 8.37223L9.87672 8.2222L9.23196 7.53619L8.86762 7.87862ZM2.39665 10.7535L1.91233 10.6292H1.91233L2.39665 10.7535ZM4.60282 11.8393V12.3393H4.97561L5.08202 11.982L4.60282 11.8393ZM6.35418 7.27979C7.2927 7.27979 7.98052 7.66485 8.50329 8.22106L9.23196 7.53619C8.55049 6.81114 7.61 6.27979 6.35418 6.27979V7.27979ZM2.88097 10.8777C3.06421 10.1635 3.39325 9.24468 3.95599 8.51427C4.50751 7.79842 5.26671 7.27979 6.35418 7.27979V6.27979C4.88556 6.27979 3.8567 7.00464 3.16383 7.90395C2.48218 8.7887 2.1105 9.85677 1.91233 10.6292L2.88097 10.8777ZM3.29574 11.3393C2.98223 11.3393 2.82618 11.0913 2.88097 10.8777L1.91233 10.6292C1.67252 11.564 2.42368 12.3393 3.29574 12.3393V11.3393ZM4.60282 11.3393H3.29574V12.3393H4.60282V11.3393ZM5.08202 11.982C5.52 10.5114 6.53389 8.76184 8.94731 8.37223L8.78794 7.38501C5.83634 7.8615 4.61604 10.0432 4.12362 11.6966L5.08202 11.982Z" fill="black"/>
</svg>
