<svg width="20" height="20" viewBox="0 0 20 20" fill="none" xmlns="http://www.w3.org/2000/svg">
<path d="M17.5833 7.08317V5.6165C17.5833 4.4964 17.5833 3.93635 17.3653 3.50852C17.1736 3.1322 16.8676 2.82624 16.4913 2.63449C16.0635 2.4165 15.5034 2.4165 14.3833 2.4165H4.45C3.32989 2.4165 2.76984 2.4165 2.34202 2.63449C1.96569 2.82624 1.65973 3.1322 1.46799 3.50852C1.25 3.93635 1.25 4.4964 1.25 5.61651V10.8832C1.25 12.0033 1.25 12.5633 1.46799 12.9912C1.65973 13.3675 1.96569 13.6734 2.34202 13.8652C2.76984 14.0832 3.32989 14.0832 4.45 14.0832H11.75" stroke="black" stroke-linecap="round"/>
<path d="M4.75 10.5835H9.41667" stroke="black" stroke-linecap="round"/>
<path d="M4.75 5.9165H12.9167" stroke="black" stroke-linecap="round"/>
<path d="M18.8333 11.7502C18.8333 13.0849 17.7514 14.1668 16.4167 14.1668C15.082 14.1668 14 13.0849 14 11.7502C14 10.4155 15.082 9.3335 16.4167 9.3335C17.7514 9.3335 18.8333 10.4155 18.8333 11.7502Z" stroke="black"/>
<path d="M18.75 17.5832C18.75 17.5832 18.1667 16.4165 16.4167 16.4165C14.6667 16.4165 14.0833 17.5832 14.0833 17.5832" stroke="black" stroke-linecap="round"/>
</svg>
