<svg width="30" height="30" viewBox="0 0 30 30" fill="none" xmlns="http://www.w3.org/2000/svg">
<path d="M7.5 12.5371H27.375" stroke="#171717" stroke-width="1.5" stroke-miterlimit="10" stroke-linecap="round" stroke-linejoin="round"/>
<path d="M14.325 25.6623H7.93744C3.49994 25.6623 2.375 24.5623 2.375 20.1748V9.89981C2.375 5.92481 3.29996 4.64981 6.78746 4.44981C7.13746 4.43731 7.52494 4.4248 7.93744 4.4248H21.825C26.2625 4.4248 27.3874 5.5248 27.3874 9.9123V15.4248" stroke="#171717" stroke-width="1.5" stroke-linecap="round" stroke-linejoin="round"/>
<path d="M22.375 27.5371C25.1364 27.5371 27.375 25.2985 27.375 22.5371C27.375 19.7757 25.1364 17.5371 22.375 17.5371C19.6136 17.5371 17.375 19.7757 17.375 22.5371C17.375 25.2985 19.6136 27.5371 22.375 27.5371Z" stroke="#171717" stroke-width="1.5" stroke-miterlimit="10" stroke-linecap="round" stroke-linejoin="round"/>
<path d="M23.7117 23.9371L21.0742 21.2871" stroke="#171717" stroke-width="1.5" stroke-miterlimit="10" stroke-linecap="round" stroke-linejoin="round"/>
<path d="M23.6871 21.3242L21.0371 23.9617" stroke="#171717" stroke-width="1.5" stroke-miterlimit="10" stroke-linecap="round" stroke-linejoin="round"/>
<path d="M7.375 20.0371H12.375" stroke="#171717" stroke-width="1.5" stroke-miterlimit="10" stroke-linecap="round" stroke-linejoin="round"/>
</svg>
