<svg width="30" height="30" viewBox="0 0 30 30" fill="none" xmlns="http://www.w3.org/2000/svg">
<path d="M7.5 12.5H27.5" stroke="#171717" stroke-width="1.5" stroke-miterlimit="10" stroke-linecap="round" stroke-linejoin="round"/>
<path d="M14.4373 25.6252H8.04982C3.61232 25.6252 2.4873 24.5252 2.4873 20.1377V9.8627C2.4873 5.8877 3.41234 4.6127 6.89984 4.4127C7.24984 4.4002 7.63732 4.3877 8.04982 4.3877H21.9373C26.3748 4.3877 27.4998 5.48769 27.4998 9.87519V15.3877" stroke="#171717" stroke-width="1.5" stroke-linecap="round" stroke-linejoin="round"/>
<path d="M7.5 20H12.5" stroke="#171717" stroke-width="1.5" stroke-miterlimit="10" stroke-linecap="round" stroke-linejoin="round"/>
<path d="M27.5 22.5C27.5 23.4375 27.2375 24.325 26.775 25.075C25.9125 26.525 24.325 27.5 22.5 27.5C20.675 27.5 19.0875 26.525 18.225 25.075C17.7625 24.325 17.5 23.4375 17.5 22.5C17.5 19.7375 19.7375 17.5 22.5 17.5C25.2625 17.5 27.5 19.7375 27.5 22.5Z" stroke="#171717" stroke-width="1.5" stroke-miterlimit="10" stroke-linecap="round" stroke-linejoin="round"/>
<path d="M20.5498 22.5004L21.7873 23.7379L24.4498 21.2754" stroke="#171717" stroke-width="1.5" stroke-linecap="round" stroke-linejoin="round"/>
</svg>
