<svg width="64" height="64" viewBox="0 0 64 64" fill="none" xmlns="http://www.w3.org/2000/svg">
<rect width="64" height="64" rx="4" fill="#6C63FF"/>
<path d="M51.2032 20.3091H12.7968C12.3568 20.3091 12 20.6658 12 21.1059V42.894C12 43.3341 12.3568 43.6908 12.7968 43.6908H51.2032C51.6432 43.6908 52 43.3341 52 42.894V21.1059C52 20.6658 51.6432 20.3091 51.2032 20.3091ZM50.4064 42.0973H13.5936V21.9027H50.4063L50.4064 42.0973Z" fill="white"/>
<path d="M46.7678 36.4844H36.2973C35.8573 36.4844 35.5005 36.8411 35.5005 37.2812C35.5005 37.7213 35.8572 38.078 36.2973 38.078H46.7678C47.2078 38.078 47.5646 37.7213 47.5646 37.2812C47.5646 36.8411 47.2078 36.4844 46.7678 36.4844Z" fill="white"/>
<path d="M46.7678 31.3682H36.2973C35.8573 31.3682 35.5005 31.7249 35.5005 32.165C35.5005 32.605 35.8572 32.9618 36.2973 32.9618H46.7678C47.2078 32.9618 47.5646 32.605 47.5646 32.165C47.5646 31.7249 47.2078 31.3682 46.7678 31.3682Z" fill="white"/>
<path d="M46.8108 26.252H46.1833C45.7433 26.252 45.3865 26.6087 45.3865 27.0487C45.3865 27.4888 45.7433 27.8455 46.1833 27.8455H46.8108C47.2508 27.8455 47.6076 27.4888 47.6076 27.0487C47.6076 26.6087 47.2508 26.252 46.8108 26.252Z" fill="white"/>
<path d="M43.1555 26.252H36.2973C35.8573 26.252 35.5005 26.6087 35.5005 27.0487C35.5005 27.4888 35.8572 27.8455 36.2973 27.8455H43.1555C43.5955 27.8455 43.9523 27.4888 43.9523 27.0487C43.9523 26.6087 43.5955 26.252 43.1555 26.252Z" fill="white"/>
<path d="M24.5773 32.7856C20.1687 32.7856 16.582 35.7319 16.582 39.3531C16.582 39.7932 16.9388 40.1499 17.3788 40.1499H31.7759C32.2159 40.1499 32.5727 39.7932 32.5727 39.3531C32.5727 35.7317 28.9861 32.7856 24.5773 32.7856ZM18.2577 38.5564C18.7051 36.4071 20.9314 34.715 23.7211 34.424V36.2002C23.7211 36.6403 24.0779 36.997 24.5179 36.997C24.9579 36.997 25.3147 36.6403 25.3147 36.2002V34.4134C28.1596 34.6682 30.4434 36.3767 30.897 38.5564H18.2577Z" fill="white"/>
<path d="M24.5099 23.7246C22.2252 23.7246 20.3665 25.5834 20.3665 27.868C20.3665 30.1527 22.2252 32.0115 24.5099 32.0115C26.7946 32.0115 28.6533 30.1527 28.6533 27.868C28.6533 25.5834 26.7946 23.7246 24.5099 23.7246ZM24.5099 30.4178C23.1039 30.4178 21.9601 29.274 21.9601 27.868C21.9601 26.4621 23.104 25.3183 24.5099 25.3183C25.9158 25.3183 27.0597 26.4621 27.0597 27.868C27.0597 29.274 25.9158 30.4178 24.5099 30.4178Z" fill="white"/>
</svg>
