<svg width="20" height="20" viewBox="0 0 20 20" fill="none" xmlns="http://www.w3.org/2000/svg">
<path d="M18.0002 8.49996H10.1668V11.5833H14.7502C14.6668 12.3333 14.1668 13.5 13.0835 14.25C12.4168 14.75 11.4168 15.0833 10.1668 15.0833C8.00016 15.0833 6.0835 13.6666 5.41683 11.5833C5.25016 11.0833 5.16683 10.5 5.16683 9.91663C5.16683 9.33329 5.25016 8.74996 5.41683 8.24996C5.50016 8.08329 5.50016 7.91663 5.5835 7.83329C6.3335 6.08329 8.0835 4.83329 10.1668 4.83329C11.7502 4.83329 12.7502 5.49996 13.4168 6.08329L15.7502 3.74996C14.3335 2.49996 12.4168 1.66663 10.1668 1.66663C6.91683 1.66663 4.0835 3.49996 2.75016 6.24996C2.16683 7.41663 1.8335 8.66663 1.8335 9.99996C1.8335 11.3333 2.16683 12.5833 2.75016 13.75C4.0835 16.5 6.91683 18.3333 10.1668 18.3333C12.4168 18.3333 14.3335 17.5833 15.6668 16.3333C17.2502 14.9166 18.1668 12.75 18.1668 10.1666C18.1668 9.49996 18.0835 8.99996 18.0002 8.49996Z" fill="#7A7A7A"/>
</svg>
