<svg width="20" height="21" viewBox="0 0 20 21" fill="none" xmlns="http://www.w3.org/2000/svg">
<path d="M18.3332 13.9916C18.3332 17.025 16.5248 18.8333 13.4915 18.8333H12.4998C12.0415 18.8333 11.6665 18.4583 11.6665 18V13.1916C11.6665 12.9666 11.8498 12.775 12.0748 12.775L13.5415 12.75C13.6582 12.7416 13.7582 12.6583 13.7832 12.5416L14.0749 10.95C14.0998 10.8 13.9832 10.6583 13.8248 10.6583L12.0498 10.6833C11.8165 10.6833 11.6332 10.5 11.6248 10.275L11.5915 8.23329C11.5915 8.09996 11.6998 7.9833 11.8415 7.9833L13.8415 7.94996C13.9832 7.94996 14.0915 7.84164 14.0915 7.69997L14.0582 5.69995C14.0582 5.55828 13.9498 5.44996 13.8082 5.44996L11.5582 5.4833C10.1748 5.5083 9.07485 6.64163 9.09985 8.02496L9.14151 10.3166C9.14984 10.55 8.96651 10.7333 8.73318 10.7416L7.73317 10.7583C7.5915 10.7583 7.48318 10.8666 7.48318 11.0083L7.50818 12.5916C7.50818 12.7333 7.6165 12.8416 7.75817 12.8416L8.75818 12.825C8.99151 12.825 9.17483 13.0083 9.18316 13.2333L9.25816 17.9833C9.26649 18.45 8.89149 18.8333 8.42483 18.8333H6.50817C3.47484 18.8333 1.6665 17.025 1.6665 13.9833V7.00829C1.6665 3.97496 3.47484 2.16663 6.50817 2.16663H13.4915C16.5248 2.16663 18.3332 3.97496 18.3332 7.00829V13.9916Z" fill="#7A7A7A" fill-opacity="0.866667"/>
</svg>
