<svg width="17" height="17" viewBox="0 0 17 17" fill="none" xmlns="http://www.w3.org/2000/svg">
<path d="M8.5 10.375L7.61612 11.2589L8.5 12.1428L9.38388 11.2589L8.5 10.375ZM9.75 1.9375C9.75 1.24714 9.19036 0.6875 8.5 0.6875C7.80964 0.6875 7.25 1.24714 7.25 1.9375L9.75 1.9375ZM2.92862 6.57138L7.61612 11.2589L9.38388 9.49112L4.69638 4.80362L2.92862 6.57138ZM9.38388 11.2589L14.0714 6.57138L12.3036 4.80362L7.61612 9.49112L9.38388 11.2589ZM9.75 10.375L9.75 1.9375L7.25 1.9375L7.25 10.375L9.75 10.375Z" fill="#6C63FF"/>
<path d="M1.9375 12.25L1.9375 13.1875C1.9375 14.223 2.77697 15.0625 3.8125 15.0625L13.1875 15.0625C14.223 15.0625 15.0625 14.223 15.0625 13.1875V12.25" stroke="#6C63FF" stroke-width="2.5"/>
</svg>
