<svg width="38" height="36" viewBox="0 0 38 36" fill="none" xmlns="http://www.w3.org/2000/svg">
<path d="M21.6756 5.09802H11.1863C10.4908 5.09802 9.82381 5.36658 9.33203 5.8446C8.84024 6.32263 8.56396 6.97098 8.56396 7.64701V28.0389C8.56396 28.715 8.84024 29.3633 9.33203 29.8413C9.82381 30.3194 10.4908 30.5879 11.1863 30.5879H26.9203C27.6157 30.5879 28.2827 30.3194 28.7745 29.8413C29.2663 29.3633 29.5426 28.715 29.5426 28.0389V12.745M21.6756 5.09802L29.5426 12.745M21.6756 5.09802V12.745H29.5426M24.2979 19.1175H13.8086M24.2979 24.2154H13.8086M16.4309 14.0195H13.8086" stroke="#6C63FF" stroke-width="2" stroke-linecap="round" stroke-linejoin="round"/>
</svg>
