<svg width="18" height="16" viewBox="0 0 18 16" fill="none" xmlns="http://www.w3.org/2000/svg">
<path d="M15.7631 9.05265V8.1316C15.7631 6.24598 15.7631 5.30317 15.1773 4.71738C14.5915 4.1316 13.6487 4.1316 11.7631 4.1316H11.1568C10.3393 4.1316 9.9305 4.1316 9.56296 3.97936C9.19542 3.82712 8.90639 3.53809 8.32833 2.96003L7.92752 2.55922C7.40884 2.04054 7.14949 1.78119 6.82599 1.63175C6.77751 1.60936 6.72815 1.58891 6.67804 1.57047C6.34361 1.44739 5.97685 1.44739 5.24331 1.44739V1.44739C3.55523 1.44739 2.71119 1.44739 2.15073 1.92456C2.06938 1.99383 1.9937 2.0695 1.92444 2.15085C1.44727 2.71131 1.44727 3.55535 1.44727 5.24343V9.07897C1.44727 10.9646 1.44727 11.9074 2.03305 12.4932C2.61884 13.079 3.56165 13.079 5.44727 13.079H11.7367" stroke="white"/>
<path d="M13.5264 13.079H15.7632M15.7632 13.079H18.0001M15.7632 13.079V15.3158M15.7632 13.079V10.8422" stroke="white"/>
</svg>
