<svg width="30" height="33" viewBox="0 0 30 33" fill="none" xmlns="http://www.w3.org/2000/svg">
<path d="M22.1328 20.9675C25.9376 18.8783 28.8221 17.2864 29.0708 17.1627C29.8661 16.7396 30.6875 15.6202 29.0708 14.7506C28.5488 14.4773 25.7384 12.9348 22.1328 10.9458L17.1343 15.9938L22.1328 20.9675Z" fill="#FFD900"/>
<path d="M17.134 15.9937L1.21826 32.0343C1.59182 32.0838 2.01362 31.9848 2.51087 31.7115C3.55485 31.14 14.6218 25.0963 22.1325 20.9686L17.134 15.9937Z" fill="#F43249"/>
<path d="M17.1343 15.9939L22.1328 10.9706C22.1328 10.9706 3.63062 0.873489 2.51119 0.277282C2.08939 0.02742 1.61688 -0.0467966 1.19385 0.02742L17.1343 15.9939Z" fill="#00EE76"/>
<path d="M17.1341 15.9938L1.19365 0.0273438C0.546729 0.177014 0 0.748481 0 1.91739V30.1444C0 31.2144 0.423034 31.985 1.21839 32.0592L17.1341 15.9938Z" fill="#00D3FF"/>
</svg>
