<svg width="20" height="18" viewBox="0 0 20 18" fill="none" xmlns="http://www.w3.org/2000/svg">
<circle cx="10" cy="3.75" r="3.15" stroke="#6A6C85" stroke-width="1.2" stroke-linecap="round"/>
<path d="M12.1883 1.8625C12.438 1.43001 12.8103 1.08127 13.2582 0.860396C13.7061 0.639518 14.2095 0.556417 14.7046 0.621602C15.1997 0.686786 15.6644 0.897329 16.0398 1.2266C16.4153 1.55588 16.6847 1.9891 16.814 2.47148C16.9432 2.95386 16.9265 3.46374 16.766 3.93663C16.6055 4.40953 16.3083 4.8242 15.9121 5.12822C15.5159 5.43223 15.0385 5.61193 14.5401 5.64459C14.0418 5.67726 13.545 5.56141 13.1125 5.31171" stroke="#6A6C85" stroke-width="1.2"/>
<path d="M7.81171 1.8625C7.56202 1.43001 7.18968 1.08127 6.74178 0.860396C6.29388 0.639518 5.79055 0.556417 5.29542 0.621602C4.8003 0.686786 4.33562 0.897329 3.96015 1.2266C3.58468 1.55588 3.31529 1.9891 3.18604 2.47148C3.05678 2.95386 3.07348 3.46374 3.234 3.93663C3.39453 4.40953 3.69168 4.8242 4.08788 5.12822C4.48408 5.43223 4.96153 5.61193 5.45986 5.64459C5.95819 5.67726 6.45501 5.56141 6.8875 5.31171" stroke="#6A6C85" stroke-width="1.2"/>
<path d="M10 9.375C15.3061 9.375 16.517 13.8425 16.7933 15.8815C16.8675 16.4288 16.4273 16.875 15.875 16.875H4.125C3.57271 16.875 3.13254 16.4288 3.20671 15.8815C3.48304 13.8425 4.69393 9.375 10 9.375Z" stroke="#6A6C85" stroke-width="1.2" stroke-linecap="round"/>
<path d="M19.1848 13.2894L19.77 13.1569L19.77 13.1569L19.1848 13.2894ZM11.3589 9.48239L10.9158 9.07783L10.1713 9.89326L11.2605 10.0743L11.3589 9.48239ZM16.4767 14.375L15.9003 14.5417L16.0256 14.975H16.4767V14.375ZM14.375 8.725C15.7326 8.725 16.6696 9.42313 17.3426 10.3809C18.0272 11.3552 18.4042 12.5585 18.5996 13.4218L19.77 13.1569C19.5603 12.2304 19.1399 10.8515 18.3245 9.69104C17.4975 8.51412 16.2321 7.525 14.375 7.525V8.725ZM11.802 9.88695C12.4313 9.19766 13.2552 8.725 14.375 8.725V7.525C12.8617 7.525 11.7315 8.18438 10.9158 9.07783L11.802 9.88695ZM11.2605 10.0743C14.1499 10.5544 15.3715 12.714 15.9003 14.5417L17.053 14.2083C16.4653 12.1769 15.0059 9.48022 11.4572 8.89051L11.2605 10.0743ZM18.27 13.775H16.4767V14.975H18.27V13.775ZM18.5996 13.4218C18.621 13.5162 18.5966 13.5954 18.543 13.6577C18.4864 13.7236 18.3916 13.775 18.27 13.775V14.975C19.2006 14.975 19.9954 14.1528 19.77 13.1569L18.5996 13.4218Z" fill="#6A6C85"/>
<path d="M8.64111 9.48239L8.73947 10.0743L9.82872 9.89326L9.08421 9.07783L8.64111 9.48239ZM0.815158 13.2894L1.40036 13.4218L0.815158 13.2894ZM3.52335 14.375V14.975H3.97437L4.09971 14.5417L3.52335 14.375ZM5.62499 8.725C6.74484 8.725 7.56868 9.19766 8.19802 9.88695L9.08421 9.07783C8.26847 8.18438 7.13834 7.525 5.62499 7.525V8.725ZM1.40036 13.4218C1.59576 12.5585 1.97283 11.3552 2.65739 10.3809C3.33039 9.42313 4.26738 8.725 5.62499 8.725V7.525C3.76788 7.525 2.5025 8.51411 1.67554 9.69103C0.860136 10.8515 0.439653 12.2304 0.229959 13.1569L1.40036 13.4218ZM1.72997 13.775C1.60834 13.775 1.51354 13.7236 1.45699 13.6577C1.40342 13.5954 1.37901 13.5162 1.40036 13.4218L0.229959 13.1569C0.0045774 14.1528 0.7994 14.975 1.72997 14.975V13.775ZM3.52335 13.775H1.72997V14.975H3.52335V13.775ZM4.09971 14.5417C4.62851 12.714 5.85011 10.5544 8.73947 10.0743L8.54275 8.89051C4.9941 9.48023 3.53467 12.1769 2.94699 14.2083L4.09971 14.5417Z" fill="#6A6C85"/>
</svg>
