<svg width="20" height="18" viewBox="0 0 20 18" fill="none" xmlns="http://www.w3.org/2000/svg">
<circle cx="10" cy="3.75" r="3" stroke="#222222" stroke-width="1.5" stroke-linecap="round"/>
<path d="M12.3182 1.9375C12.5531 1.5307 12.9033 1.20268 13.3246 0.994927C13.7459 0.787171 14.2193 0.709006 14.685 0.770318C15.1507 0.831631 15.5878 1.02967 15.9409 1.33938C16.2941 1.6491 16.5475 2.05658 16.6691 2.51031C16.7906 2.96403 16.7749 3.44362 16.624 3.88842C16.473 4.33322 16.1935 4.72326 15.8208 5.00921C15.4481 5.29517 14.9991 5.46419 14.5303 5.49491C14.0616 5.52564 13.5943 5.41668 13.1875 5.18181" stroke="#222222" stroke-width="1.5"/>
<path d="M7.68181 1.9375C7.44695 1.5307 7.09672 1.20268 6.67544 0.994927C6.25415 0.787171 5.78071 0.709006 5.315 0.770318C4.84929 0.831631 4.41222 1.02967 4.05905 1.33938C3.70589 1.6491 3.4525 2.05658 3.33093 2.51031C3.20935 2.96403 3.22505 3.44362 3.37604 3.88842C3.52703 4.33322 3.80653 4.72326 4.17919 5.00921C4.55185 5.29517 5.00094 5.46419 5.46967 5.49491C5.93839 5.52564 6.4057 5.41668 6.8125 5.18181" stroke="#222222" stroke-width="1.5"/>
<path d="M10 9.375C15.3061 9.375 16.517 13.8425 16.7933 15.8815C16.8675 16.4288 16.4273 16.875 15.875 16.875H4.125C3.57272 16.875 3.13254 16.4288 3.20671 15.8815C3.48304 13.8425 4.69393 9.375 10 9.375Z" stroke="#222222" stroke-width="1.5" stroke-linecap="round"/>
<path d="M19.1848 13.2894L19.9163 13.1238L19.1848 13.2894ZM11.3589 9.48239L10.805 8.97669L9.87436 9.99598L11.2359 10.2222L11.3589 9.48239ZM16.4766 14.375L15.7562 14.5834L15.9129 15.125H16.4766V14.375ZM14.375 8.875C15.6702 8.875 16.5661 9.53676 17.2199 10.4672C17.8881 11.4181 18.2597 12.5995 18.4533 13.4549L19.9163 13.1238C19.7048 12.1894 19.2789 10.7885 18.4472 9.6048C17.601 8.40049 16.2946 7.375 14.375 7.375V8.875ZM11.9127 9.98809C12.5188 9.32432 13.3043 8.875 14.375 8.875V7.375C12.8125 7.375 11.6441 8.05772 10.805 8.97669L11.9127 9.98809ZM11.2359 10.2222C14.0429 10.6887 15.2347 12.7811 15.7562 14.5834L17.1971 14.1666C16.6021 12.1098 15.1129 9.34595 11.4818 8.74253L11.2359 10.2222ZM18.27 13.625H16.4766V15.125H18.27V13.625ZM18.4533 13.4549C18.4596 13.4827 18.4575 13.5013 18.4542 13.5141C18.4506 13.5281 18.443 13.5439 18.4292 13.56C18.4012 13.5926 18.3481 13.625 18.27 13.625V15.125C19.2853 15.125 20.1654 14.2244 19.9163 13.1238L18.4533 13.4549Z" fill="#222222"/>
<path d="M8.64113 9.48239L8.76408 10.2222L10.1256 9.99598L9.195 8.97669L8.64113 9.48239ZM0.815173 13.2894L1.54667 13.4549L0.815173 13.2894ZM3.52337 14.375V15.125H4.08714L4.24382 14.5834L3.52337 14.375ZM5.625 8.875C6.69567 8.875 7.48122 9.32432 8.08726 9.98809L9.195 8.97669C8.35596 8.05772 7.18754 7.375 5.625 7.375V8.875ZM1.54667 13.4549C1.74029 12.5995 2.11194 11.4181 2.78014 10.4672C3.43389 9.53676 4.32983 8.875 5.625 8.875V7.375C3.70546 7.375 2.39903 8.40049 1.55282 9.6048C0.721064 10.7885 0.295156 12.1894 0.0836741 13.1238L1.54667 13.4549ZM1.72999 13.625C1.65189 13.625 1.59874 13.5926 1.57081 13.56C1.55696 13.5439 1.54941 13.5281 1.54579 13.5141C1.54248 13.5013 1.54039 13.4827 1.54667 13.4549L0.0836741 13.1238C-0.165403 14.2244 0.714677 15.125 1.72999 15.125V13.625ZM3.52337 13.625H1.72999V15.125H3.52337V13.625ZM4.24382 14.5834C4.76526 12.7811 5.95713 10.6887 8.76408 10.2222L8.51818 8.74254C4.88711 9.34595 3.39795 12.1098 2.80291 14.1666L4.24382 14.5834Z" fill="#222222"/>
</svg>
