<svg width="16" height="14" viewBox="0 0 16 14" fill="none" xmlns="http://www.w3.org/2000/svg">
<circle cx="8" cy="3" r="2.5" stroke="#808080" stroke-opacity="0.55" stroke-linecap="round"/>
<path d="M9.76795 1.5C9.96573 1.15743 10.2607 0.881207 10.6154 0.706255C10.9702 0.531302 11.3689 0.465479 11.7611 0.51711C12.1532 0.568742 12.5213 0.735508 12.8187 0.99632C13.1161 1.25713 13.3295 1.60028 13.4319 1.98236C13.5342 2.36445 13.521 2.76831 13.3939 3.14288C13.2667 3.51745 13.0313 3.8459 12.7175 4.08671C12.4037 4.32751 12.0255 4.46985 11.6308 4.49572C11.2361 4.52159 10.8426 4.42983 10.5 4.23205" stroke="#808080" stroke-opacity="0.55"/>
<path d="M6.23205 1.5C6.03427 1.15743 5.73935 0.881207 5.38458 0.706255C5.02981 0.531302 4.63113 0.465479 4.23895 0.51711C3.84677 0.568742 3.47871 0.735508 3.18131 0.99632C2.88391 1.25713 2.67053 1.60028 2.56815 1.98236C2.46577 2.36445 2.47899 2.76831 2.60614 3.14288C2.73329 3.51745 2.96866 3.8459 3.28248 4.08671C3.5963 4.32751 3.97448 4.46985 4.36919 4.49572C4.76391 4.52159 5.15743 4.42983 5.5 4.23205" stroke="#808080" stroke-opacity="0.55"/>
<path d="M8 7.5C12.0802 7.5 13.1335 10.8022 13.4054 12.507C13.4924 13.0524 13.0523 13.5 12.5 13.5H3.5C2.94771 13.5 2.50763 13.0524 2.59461 12.507C2.86649 10.8022 3.91976 7.5 8 7.5Z" stroke="#808080" stroke-opacity="0.55" stroke-linecap="round"/>
<path d="M15.2966 10.4162L14.8116 10.5377L15.2966 10.4162ZM9.08716 7.58591L8.71791 7.24878L8.09748 7.9283L9.00519 8.07915L9.08716 7.58591ZM13.1814 11.5L12.7011 11.639L12.8055 12H13.1814V11.5ZM11.5001 7C12.5278 7 13.2496 7.50265 13.7784 8.20693C14.3178 8.92529 14.6345 9.83057 14.8116 10.5377L15.7816 10.2948C15.5905 9.5315 15.2329 8.47866 14.5781 7.6065C13.9126 6.72026 12.9203 6 11.5001 6V7ZM9.4564 7.92304C9.95677 7.37501 10.6107 7 11.5001 7V6C10.2828 6 9.37362 6.53062 8.71791 7.24878L9.4564 7.92304ZM9.00519 8.07915C11.3057 8.46145 12.279 10.1801 12.7011 11.639L13.6617 11.361C13.1906 9.7326 12.019 7.56628 9.16912 7.09267L9.00519 8.07915ZM14.3951 11H13.1814V12H14.3951V11ZM14.8116 10.5377C14.8654 10.7526 14.7076 11 14.3951 11V12C15.2658 12 16.0153 11.2277 15.7816 10.2948L14.8116 10.5377Z" fill="#808080" fill-opacity="0.55"/>
<path d="M6.91301 7.58591L6.99498 8.07915L7.90268 7.9283L7.28226 7.24878L6.91301 7.58591ZM0.703552 10.4162L1.18857 10.5377L0.703552 10.4162ZM2.8188 11.5V12H3.19465L3.2991 11.639L2.8188 11.5ZM4.50011 7C5.38944 7 6.0434 7.37501 6.54377 7.92304L7.28226 7.24878C6.62656 6.53062 5.71735 6 4.50011 6V7ZM1.18857 10.5377C1.36566 9.83057 1.6824 8.92529 2.22179 8.20693C2.7506 7.50265 3.47238 7 4.50011 7V6C3.07993 6 2.08755 6.72026 1.42211 7.6065C0.767253 8.47865 0.409675 9.5315 0.218529 10.2948L1.18857 10.5377ZM1.6051 11C1.29259 11 1.13477 10.7526 1.18857 10.5377L0.218529 10.2948C-0.0151039 11.2277 0.734361 12 1.6051 12V11ZM2.8188 11H1.6051V12H2.8188V11ZM3.2991 11.639C3.72116 10.1801 4.69448 8.46145 6.99498 8.07915L6.83105 7.09268C3.98113 7.56628 2.80962 9.73261 2.3385 11.361L3.2991 11.639Z" fill="#808080" fill-opacity="0.55"/>
</svg>
