<svg width="27" height="27" viewBox="0 0 27 27" fill="none" xmlns="http://www.w3.org/2000/svg">
<circle cx="13.5" cy="9.75" r="1.75" stroke="#222222" stroke-width="1.5" stroke-linecap="round"/>
<path d="M18.2345 8.875C18.4665 8.47305 18.8488 8.17976 19.2971 8.05963C19.7454 7.9395 20.2231 8.00239 20.625 8.23446C21.0269 8.46652 21.3202 8.84875 21.4404 9.29707C21.5605 9.74538 21.4976 10.2231 21.2655 10.625C21.0335 11.0269 20.6512 11.3202 20.2029 11.4404C19.7546 11.5605 19.2769 11.4976 18.875 11.2655C18.4731 11.0335 18.1798 10.6512 18.0596 10.2029C17.9395 9.75462 18.0024 9.27695 18.2345 8.875L18.2345 8.875Z" stroke="#222222" stroke-width="1.5"/>
<path d="M5.73446 8.875C5.96652 8.47305 6.34875 8.17976 6.79707 8.05963C7.24538 7.9395 7.72305 8.00239 8.125 8.23446C8.52695 8.46652 8.82024 8.84875 8.94037 9.29707C9.0605 9.74538 8.99761 10.2231 8.76554 10.625C8.53348 11.0269 8.15125 11.3202 7.70293 11.4404C7.25462 11.5605 6.77695 11.4976 6.375 11.2655C5.97305 11.0335 5.67976 10.6512 5.55963 10.2029C5.4395 9.75462 5.50239 9.27695 5.73446 8.875L5.73446 8.875Z" stroke="#222222" stroke-width="1.5"/>
<path d="M24.0084 18.1339L24.7438 17.9868V17.9868L24.0084 18.1339ZM16.125 14.9818L15.689 14.3715L14.8904 14.942L15.6507 15.5627L16.125 14.9818ZM17.7727 18.1321L18.5114 18.0026L17.7727 18.1321ZM23.125 18.375H16.875V19.875H23.125V18.375ZM23.2729 18.281C23.2765 18.2987 23.2742 18.3056 23.2738 18.3067C23.2731 18.3091 23.2707 18.3157 23.2619 18.3253C23.2432 18.3456 23.198 18.375 23.125 18.375V19.875C24.0601 19.875 24.9618 19.0771 24.7438 17.9868L23.2729 18.281ZM19.125 14.875C20.7079 14.875 21.6499 15.4297 22.2392 16.0845C22.8521 16.7656 23.141 17.6212 23.2729 18.281L24.7438 17.9868C24.5842 17.1889 24.2172 16.0401 23.3542 15.0811C22.4675 14.0959 21.1136 13.375 19.125 13.375V14.875ZM16.561 15.592C17.1349 15.182 17.9483 14.875 19.125 14.875V13.375C17.6698 13.375 16.5439 13.7608 15.689 14.3715L16.561 15.592ZM15.6507 15.5627C16.5103 16.2646 16.8827 17.3988 17.0339 18.2615L18.5114 18.0026C18.3399 17.0242 17.8812 15.4474 16.5993 14.4008L15.6507 15.5627ZM17.0339 18.2615C17.0374 18.2812 17.035 18.2912 17.0335 18.2959C17.0317 18.3017 17.0275 18.311 17.017 18.3223C16.9951 18.3459 16.9477 18.375 16.875 18.375V19.875C17.8147 19.875 18.7002 19.0798 18.5114 18.0026L17.0339 18.2615Z" fill="#222222"/>
<path d="M10.875 14.9817L11.3493 15.5627L12.1095 14.942L11.311 14.3715L10.875 14.9817ZM2.99161 18.1339L3.72704 18.281L2.99161 18.1339ZM9.22729 18.1321L9.96604 18.2615L9.96604 18.2615L9.22729 18.1321ZM7.87501 14.875C9.05172 14.875 9.86503 15.182 10.439 15.592L11.311 14.3715C10.4561 13.7607 9.3302 13.375 7.87501 13.375V14.875ZM3.72704 18.281C3.85899 17.6212 4.14787 16.7656 4.76079 16.0845C5.35011 15.4297 6.29208 14.875 7.87501 14.875V13.375C5.88643 13.375 4.53246 14.0959 3.64583 15.0811C2.78281 16.04 2.41574 17.1889 2.25617 17.9868L3.72704 18.281ZM3.87502 18.375C3.80197 18.375 3.75674 18.3456 3.73803 18.3253C3.72927 18.3157 3.72684 18.3091 3.72614 18.3067C3.72581 18.3056 3.7235 18.2987 3.72704 18.281L2.25617 17.9868C2.03812 19.0771 2.93987 19.875 3.87502 19.875V18.375ZM10.125 18.375H3.87502V19.875H10.125V18.375ZM10.125 18.375C10.0522 18.375 10.0049 18.3459 9.98297 18.3223C9.97249 18.311 9.96824 18.3017 9.96642 18.2959C9.96497 18.2912 9.96259 18.2812 9.96604 18.2615L8.48855 18.0026C8.29978 19.0798 9.18525 19.875 10.125 19.875V18.375ZM9.96604 18.2615C10.1172 17.3988 10.4897 16.2646 11.3493 15.5627L10.4006 14.4008C9.11877 15.4474 8.66 17.0242 8.48855 18.0026L9.96604 18.2615Z" fill="#222222"/>
<path d="M13.5 14.125C16.6238 14.125 17.5172 16.674 17.7727 18.1321C17.868 18.676 17.4273 19.125 16.875 19.125H10.125C9.57272 19.125 9.13201 18.676 9.22734 18.1321C9.48283 16.674 10.3762 14.125 13.5 14.125Z" stroke="#222222" stroke-width="1.5" stroke-linecap="round"/>
<path d="M21.625 25.375H23.875C24.7034 25.375 25.375 24.7034 25.375 23.875V21.625" stroke="#222222" stroke-width="1.5" stroke-linecap="round"/>
<path d="M21.625 1.625H23.875C24.7034 1.625 25.375 2.29657 25.375 3.125V5.375" stroke="#222222" stroke-width="1.5" stroke-linecap="round"/>
<path d="M5.375 25.375H3.125C2.29657 25.375 1.625 24.7034 1.625 23.875V21.625" stroke="#222222" stroke-width="1.5" stroke-linecap="round"/>
<path d="M5.375 1.625H3.125C2.29657 1.625 1.625 2.29657 1.625 3.125V5.375" stroke="#222222" stroke-width="1.5" stroke-linecap="round"/>
</svg>
