<svg width="30" height="35" viewBox="0 0 30 35" fill="none" xmlns="http://www.w3.org/2000/svg">
<path d="M30 25.605C29.181 27.4215 28.7864 28.2326 27.7314 29.8388C26.26 32.0797 24.1818 34.8718 21.6097 34.8956C19.3253 34.9154 18.7383 33.4083 15.6348 33.4262C12.5334 33.442 11.8869 34.9234 9.60044 34.9015C7.02844 34.8777 5.05928 32.3573 3.58588 30.1145C-0.532903 23.8481 -0.963223 16.491 1.57705 12.5784C3.38162 9.8002 6.23126 8.1741 8.90836 8.1741C11.635 8.1741 13.3504 9.66932 15.6031 9.66932C17.7904 9.66932 19.123 8.17014 22.2761 8.17014C24.6557 8.17014 27.1821 9.46903 28.9807 11.7099C23.0871 14.9402 24.0429 23.3563 30 25.605ZM19.8845 5.66754C21.0287 4.19612 21.8993 2.12186 21.584 0C19.712 0.128898 17.5247 1.31872 16.2456 2.87145C15.0875 4.27941 14.1297 6.36755 14.5005 8.39818C16.5431 8.45966 18.657 7.24009 19.8845 5.66754Z" fill="black"/>
</svg>
