<svg width="38" height="37" viewBox="0 0 38 37" fill="none" xmlns="http://www.w3.org/2000/svg">
<rect width="38" height="36.3478" rx="8" fill="#6C63FF"/>
<path d="M6.19556 22.0151C6.19556 26.9704 10.2033 30.9782 15.1586 30.9782L13.8141 28.7374" stroke="white" stroke-width="1.5" stroke-linecap="round" stroke-linejoin="round"/>
<path d="M31.8041 14.3326C31.8041 9.37727 27.7963 5.36951 22.8411 5.36951L24.1855 7.61027" stroke="white" stroke-width="1.5" stroke-linecap="round" stroke-linejoin="round"/>
<path d="M18.9999 26.4348C23.5622 26.4348 27.2607 22.7363 27.2607 18.174C27.2607 13.6116 23.5622 9.91309 18.9999 9.91309C14.4375 9.91309 10.739 13.6116 10.739 18.174C10.739 22.7363 14.4375 26.4348 18.9999 26.4348Z" stroke="white" stroke-width="1.5" stroke-linecap="round" stroke-linejoin="round"/>
<path d="M15.6955 10.7391H16.5216C14.9108 15.5635 14.9108 20.7844 16.5216 25.6087H15.6955" stroke="white" stroke-width="1.5" stroke-linecap="round" stroke-linejoin="round"/>
<path d="M21.4783 10.7391C23.0891 15.5635 23.0891 20.7844 21.4783 25.6087" stroke="white" stroke-width="1.5" stroke-linecap="round" stroke-linejoin="round"/>
<path d="M11.5652 21.4783V20.6522C16.3895 22.2631 21.6104 22.2631 26.4347 20.6522V21.4783" stroke="white" stroke-width="1.5" stroke-linecap="round" stroke-linejoin="round"/>
<path d="M11.5652 15.6957C16.3895 14.0848 21.6104 14.0848 26.4347 15.6957" stroke="white" stroke-width="1.5" stroke-linecap="round" stroke-linejoin="round"/>
<path d="M4.13037 7.1305C4.13037 5.47364 5.47352 4.13049 7.13037 4.13049H12.6956C14.3524 4.13049 15.6956 5.47364 15.6956 7.13049V9.13789C15.6956 9.28342 15.5835 9.40711 15.4411 9.43735C14.9015 9.552 13.5612 9.9823 11.9782 11.5653C9.91298 13.6305 10.0082 15.6957 9.49994 15.6957C9.21753 15.6957 8.28826 15.6957 7.13075 15.6957C5.47389 15.6957 4.13037 14.3526 4.13037 12.6957V7.1305Z" fill="white"/>
<path d="M33.8696 29.2174C33.8696 30.8743 32.5265 32.2174 30.8696 32.2174H25.3044C23.6476 32.2174 22.3044 30.8743 22.3044 29.2174V27.21C22.3044 27.0645 22.4165 26.9408 22.5589 26.9105C23.0985 26.7959 24.4388 26.3656 26.0218 24.7826C28.087 22.7174 27.9918 20.6522 28.5001 20.6522C28.7825 20.6522 29.7117 20.6522 30.8693 20.6522C32.5261 20.6522 33.8696 21.9953 33.8696 23.6522V29.2174Z" fill="white"/>
<path d="M10.7972 7.44641H5.79517" stroke="#6C63FF" stroke-width="1.5" stroke-linecap="round" stroke-linejoin="round"/>
<path d="M8.28369 6.60864V7.44641" stroke="#6C63FF" stroke-width="1.5" stroke-linecap="round" stroke-linejoin="round"/>
<path d="M9.54041 7.4342C9.54041 9.59026 7.85252 11.3397 5.78271 11.3397" stroke="#6C63FF" stroke-width="1.5" stroke-linecap="round" stroke-linejoin="round"/>
<path d="M10.7971 11.3397C9.89768 11.3397 9.08456 10.8592 8.51782 10.0953" stroke="#6C63FF" stroke-width="1.5" stroke-linecap="round" stroke-linejoin="round"/>
<path d="M31.6226 29.1322L29.0287 23.9565L26.4348 29.1322" stroke="#6C63FF" stroke-width="1.5" stroke-linecap="round" stroke-linejoin="round"/>
<path d="M26.9075 28.2109H31.1741" stroke="#6C63FF" stroke-width="1.5" stroke-linecap="round" stroke-linejoin="round"/>
</svg>
