<svg width="42" height="41" viewBox="0 0 42 41" fill="none" xmlns="http://www.w3.org/2000/svg">
<rect width="42" height="40.1739" rx="8" fill="#F5F5FF"/>
<path d="M6.84784 24.3325C6.84784 29.8094 11.2775 34.239 16.7544 34.239L15.2684 31.7624" stroke="#6C63FF" stroke-width="1.5" stroke-linecap="round" stroke-linejoin="round"/>
<path d="M35.1521 15.8413C35.1521 10.3644 30.7225 5.93481 25.2456 5.93481L26.7316 8.41145" stroke="#6C63FF" stroke-width="1.5" stroke-linecap="round" stroke-linejoin="round"/>
<path d="M21 29.2174C26.0426 29.2174 30.1304 25.1296 30.1304 20.087C30.1304 15.0444 26.0426 10.9565 21 10.9565C15.9574 10.9565 11.8696 15.0444 11.8696 20.087C11.8696 25.1296 15.9574 29.2174 21 29.2174Z" stroke="#6C63FF" stroke-width="1.5" stroke-linecap="round" stroke-linejoin="round"/>
<path d="M17.3478 11.8694H18.2609C16.4804 17.2016 16.4804 22.972 18.2609 28.3042H17.3478" stroke="#6C63FF" stroke-width="1.5" stroke-linecap="round" stroke-linejoin="round"/>
<path d="M23.7391 11.8694C25.5195 17.2016 25.5195 22.972 23.7391 28.3042" stroke="#6C63FF" stroke-width="1.5" stroke-linecap="round" stroke-linejoin="round"/>
<path d="M12.7826 23.739V22.8259C18.1148 24.6064 23.8852 24.6064 29.2174 22.8259V23.739" stroke="#6C63FF" stroke-width="1.5" stroke-linecap="round" stroke-linejoin="round"/>
<path d="M12.7826 17.3478C18.1148 15.5673 23.8852 15.5673 29.2174 17.3478" stroke="#6C63FF" stroke-width="1.5" stroke-linecap="round" stroke-linejoin="round"/>
<path d="M4.56525 7.56518C4.56525 5.90833 5.90839 4.56519 7.56525 4.56519H14.3479C16.0047 4.56519 17.3479 5.90833 17.3479 7.56519V10.0997C17.3479 10.2605 17.2239 10.3972 17.0666 10.4307C16.4702 10.5574 14.9888 11.033 13.2392 12.7826C10.9566 15.0652 11.0617 17.3478 10.5 17.3478C10.1626 17.3478 8.98959 17.3478 7.56559 17.3478C5.90874 17.3478 4.56525 16.0047 4.56525 14.3478V7.56518Z" fill="#6C63FF"/>
<path d="M37.4348 32.6086C37.4348 34.2655 36.0916 35.6086 34.4348 35.6086H27.6521C25.9953 35.6086 24.6521 34.2655 24.6521 32.6086V30.0742C24.6521 29.9133 24.7761 29.7766 24.9334 29.7432C25.5298 29.6165 27.0112 29.1409 28.7608 27.3912C31.0434 25.1086 30.9383 22.826 31.5 22.826C31.8374 22.826 33.0104 22.826 34.4344 22.826C36.0913 22.826 37.4348 24.1692 37.4348 25.826V32.6086Z" fill="#6C63FF"/>
<path d="M11.9335 8.23047H6.40497" stroke="#F5F5FF" stroke-width="1.5" stroke-linecap="round" stroke-linejoin="round"/>
<path d="M9.15558 7.30444V8.2304" stroke="#F5F5FF" stroke-width="1.5" stroke-linecap="round" stroke-linejoin="round"/>
<path d="M10.5445 8.2168C10.5445 10.5998 8.67898 12.5334 6.3913 12.5334" stroke="#F5F5FF" stroke-width="1.5" stroke-linecap="round" stroke-linejoin="round"/>
<path d="M11.9335 12.5335C10.9394 12.5335 10.0407 12.0025 9.41431 11.1582" stroke="#F5F5FF" stroke-width="1.5" stroke-linecap="round" stroke-linejoin="round"/>
<path d="M34.9513 32.1987L32.0844 26.4783L29.2174 32.1987" stroke="#F5F5FF" stroke-width="1.5" stroke-linecap="round" stroke-linejoin="round"/>
<path d="M29.7399 31.1804H34.4557" stroke="#F5F5FF" stroke-width="1.5" stroke-linecap="round" stroke-linejoin="round"/>
</svg>
