<svg width="15" height="16" viewBox="0 0 15 16" fill="none" xmlns="http://www.w3.org/2000/svg">
<path d="M14.3184 7.81827L14.7088 7.50592L14.9587 7.81827L14.7088 8.13062L14.3184 7.81827ZM8.182 8.31827C7.90585 8.31827 7.682 8.09441 7.682 7.81827C7.682 7.54213 7.90585 7.31827 8.182 7.31827V8.31827ZM11.9815 4.09683L14.7088 7.50592L13.9279 8.13062L11.2007 4.72153L11.9815 4.09683ZM14.7088 8.13062L11.9815 11.5397L11.2007 10.915L13.9279 7.50592L14.7088 8.13062ZM14.3184 8.31827H8.182V7.31827H14.3184V8.31827Z" fill="white"/>
<path d="M8.86377 5.18086V1.27587V1.27587C8.86377 1.12351 8.74026 1 8.5879 1H0.75V1C0.712418 1 0.681951 1.03047 0.681951 1.06805V14.5V14.5C0.681951 14.5753 0.743003 14.6364 0.818315 14.6364H8.53941C8.71855 14.6364 8.86377 14.4911 8.86377 14.312V14.312V10.5904" stroke="white"/>
</svg>
