<svg width="17" height="20" viewBox="0 0 17 20" fill="none" xmlns="http://www.w3.org/2000/svg">
<path d="M8.52313 1.87744C5.4282 1.87744 2.91301 4.3114 2.91301 7.30636V9.92127C2.91301 10.4732 2.66991 11.3147 2.38005 11.7852L1.30478 13.5134C0.640923 14.5811 1.09908 15.7664 2.3146 16.1645C6.34452 17.4675 10.6924 17.4675 14.7223 16.1645C15.8537 15.8026 16.3492 14.5087 15.7321 13.5134L14.6568 11.7852C14.3763 11.3147 14.1332 10.4732 14.1332 9.92127V7.30636C14.1332 4.32045 11.6087 1.87744 8.52313 1.87744Z" stroke="white" stroke-width="1.5" stroke-miterlimit="10" stroke-linecap="round"/>
<path d="M10.253 2.14007C9.96316 2.05864 9.66395 1.9953 9.3554 1.95911C8.45778 1.85053 7.59757 1.91387 6.79346 2.14007C7.06461 1.47051 7.73782 1 8.52324 1C9.30865 1 9.98186 1.47051 10.253 2.14007Z" stroke="white" stroke-width="1.5" stroke-miterlimit="10" stroke-linecap="round" stroke-linejoin="round"/>
<path d="M11.328 16.4907C11.328 17.9837 10.0657 19.2052 8.52292 19.2052C7.75621 19.2052 7.0456 18.8975 6.54071 18.4089C6.0358 17.9203 5.7179 17.2327 5.7179 16.4907" stroke="white" stroke-width="1.5" stroke-miterlimit="10"/>
</svg>
