<svg width="15" height="13" viewBox="0 0 15 13" fill="none" xmlns="http://www.w3.org/2000/svg">
<path d="M13.1875 4.3125V4.0125C13.1875 2.89239 13.1875 2.33234 12.9695 1.90452C12.7778 1.52819 12.4718 1.22223 12.0955 1.03049C11.6677 0.8125 11.1076 0.8125 9.9875 0.8125H4.1375C3.0174 0.8125 2.45734 0.8125 2.02952 1.03049C1.65319 1.22223 1.34723 1.52819 1.15549 1.90452C0.9375 2.33234 0.9375 2.89239 0.9375 4.0125V6.3625C0.9375 7.48261 0.9375 8.04266 1.15549 8.47048C1.34723 8.84681 1.65319 9.15277 2.02952 9.34451C2.45734 9.5625 3.01739 9.5625 4.1375 9.5625H8.8125" stroke="white" stroke-linecap="round"/>
<path d="M3.5625 6.9375H7.0625" stroke="white" stroke-linecap="round"/>
<path d="M3.5625 3.4375H9.6875" stroke="white" stroke-linecap="round"/>
<circle cx="12.3125" cy="7.8125" r="1.6875" stroke="white"/>
<path d="M14.0625 12.1875C14.0625 12.1875 13.625 11.3125 12.3125 11.3125C11 11.3125 10.5625 12.1875 10.5625 12.1875" stroke="white" stroke-linecap="round"/>
</svg>
