<svg width="37" height="13" viewBox="0 0 37 13" fill="none" xmlns="http://www.w3.org/2000/svg">
<rect width="37" height="13" rx="2" fill="#98E598"/>
<path d="M11.7727 6.59091C11.7727 7.2178 11.6553 7.75473 11.4205 8.2017C11.1875 8.64678 10.8693 8.98769 10.4659 9.22443C10.0644 9.46117 9.6089 9.57955 9.09943 9.57955C8.58996 9.57955 8.13352 9.46117 7.73011 9.22443C7.3286 8.9858 7.01042 8.64394 6.77557 8.19886C6.54261 7.75189 6.42614 7.21591 6.42614 6.59091C6.42614 5.96402 6.54261 5.42803 6.77557 4.98295C7.01042 4.53598 7.3286 4.19413 7.73011 3.95739C8.13352 3.72064 8.58996 3.60227 9.09943 3.60227C9.6089 3.60227 10.0644 3.72064 10.4659 3.95739C10.8693 4.19413 11.1875 4.53598 11.4205 4.98295C11.6553 5.42803 11.7727 5.96402 11.7727 6.59091ZM10.7131 6.59091C10.7131 6.14962 10.6439 5.77746 10.5057 5.47443C10.3693 5.16951 10.1799 4.93939 9.9375 4.78409C9.69508 4.62689 9.41572 4.5483 9.09943 4.5483C8.78314 4.5483 8.50379 4.62689 8.26136 4.78409C8.01894 4.93939 7.8286 5.16951 7.69034 5.47443C7.55398 5.77746 7.4858 6.14962 7.4858 6.59091C7.4858 7.0322 7.55398 7.4053 7.69034 7.71023C7.8286 8.01326 8.01894 8.24337 8.26136 8.40057C8.50379 8.55587 8.78314 8.63352 9.09943 8.63352C9.41572 8.63352 9.69508 8.55587 9.9375 8.40057C10.1799 8.24337 10.3693 8.01326 10.5057 7.71023C10.6439 7.4053 10.7131 7.0322 10.7131 6.59091ZM13.7521 6.94318V9.5H12.7237V5.13636H13.7067V5.87784H13.7578C13.8582 5.63352 14.0182 5.43939 14.2379 5.29545C14.4595 5.15152 14.7332 5.07955 15.0589 5.07955C15.3601 5.07955 15.6224 5.14394 15.8459 5.27273C16.0713 5.40152 16.2455 5.58807 16.3686 5.83239C16.4936 6.0767 16.5552 6.37311 16.5533 6.72159V9.5H15.5249V6.88068C15.5249 6.58902 15.4491 6.3608 15.2976 6.19602C15.148 6.03125 14.9406 5.94886 14.6754 5.94886C14.4955 5.94886 14.3355 5.98864 14.1953 6.06818C14.0571 6.14583 13.9482 6.25852 13.8686 6.40625C13.791 6.55398 13.7521 6.73295 13.7521 6.94318ZM18.6271 3.68182V9.5H17.5987V3.68182H18.6271ZM19.6847 9.5V5.13636H20.7131V9.5H19.6847ZM20.2017 4.51705C20.0388 4.51705 19.8987 4.46307 19.7812 4.35511C19.6638 4.24526 19.6051 4.11364 19.6051 3.96023C19.6051 3.80492 19.6638 3.6733 19.7812 3.56534C19.8987 3.45549 20.0388 3.40057 20.2017 3.40057C20.3665 3.40057 20.5066 3.45549 20.6222 3.56534C20.7396 3.6733 20.7983 3.80492 20.7983 3.96023C20.7983 4.11364 20.7396 4.24526 20.6222 4.35511C20.5066 4.46307 20.3665 4.51705 20.2017 4.51705ZM22.799 6.94318V9.5H21.7706V5.13636H22.7536V5.87784H22.8047C22.9051 5.63352 23.0651 5.43939 23.2848 5.29545C23.5064 5.15152 23.7801 5.07955 24.1058 5.07955C24.407 5.07955 24.6693 5.14394 24.8928 5.27273C25.1181 5.40152 25.2924 5.58807 25.4155 5.83239C25.5405 6.0767 25.602 6.37311 25.6001 6.72159V9.5H24.5717V6.88068C24.5717 6.58902 24.496 6.3608 24.3445 6.19602C24.1948 6.03125 23.9875 5.94886 23.7223 5.94886C23.5424 5.94886 23.3823 5.98864 23.2422 6.06818C23.1039 6.14583 22.995 6.25852 22.9155 6.40625C22.8378 6.55398 22.799 6.73295 22.799 6.94318ZM28.5774 9.58523C28.1399 9.58523 27.7621 9.49432 27.4439 9.3125C27.1276 9.12879 26.8842 8.86932 26.7138 8.53409C26.5433 8.19697 26.4581 7.80019 26.4581 7.34375C26.4581 6.89489 26.5433 6.50095 26.7138 6.16193C26.8861 5.82102 27.1267 5.55587 27.4354 5.36648C27.7441 5.17519 28.1068 5.07955 28.5234 5.07955C28.7924 5.07955 29.0462 5.12311 29.2848 5.21023C29.5253 5.29545 29.7375 5.42803 29.9212 5.60795C30.1068 5.78788 30.2526 6.01705 30.3587 6.29545C30.4647 6.57197 30.5178 6.90152 30.5178 7.28409V7.59943H26.9411V6.90625H29.532C29.5301 6.70928 29.4875 6.53409 29.4041 6.38068C29.3208 6.22538 29.2043 6.10322 29.0547 6.0142C28.907 5.92519 28.7346 5.88068 28.5376 5.88068C28.3274 5.88068 28.1428 5.93182 27.9837 6.03409C27.8246 6.13447 27.7005 6.26705 27.6115 6.43182C27.5244 6.5947 27.4799 6.77367 27.478 6.96875V7.57386C27.478 7.82765 27.5244 8.04545 27.6172 8.22727C27.71 8.4072 27.8397 8.54545 28.0064 8.64205C28.1731 8.73674 28.3681 8.78409 28.5916 8.78409C28.7412 8.78409 28.8767 8.76326 28.9979 8.72159C29.1191 8.67803 29.2242 8.61458 29.3132 8.53125C29.4022 8.44792 29.4695 8.3447 29.5149 8.22159L30.4751 8.32955C30.4145 8.58333 30.299 8.80492 30.1286 8.99432C29.96 9.18182 29.7441 9.32765 29.4808 9.43182C29.2176 9.53409 28.9164 9.58523 28.5774 9.58523Z" fill="#006900"/>
</svg>
