<svg width="70" height="70" viewBox="0 0 70 70" fill="none" xmlns="http://www.w3.org/2000/svg">
<path d="M35.35 37.2749C35.1458 37.2458 34.8833 37.2458 34.65 37.2749C29.5167 37.0999 25.4333 32.8999 25.4333 27.7374C25.4333 22.4583 29.6917 18.1708 35 18.1708C40.2792 18.1708 44.5667 22.4583 44.5667 27.7374C44.5375 32.8999 40.4833 37.0999 35.35 37.2749Z" stroke="#171717" stroke-width="2" stroke-linecap="round" stroke-linejoin="round"/>
<path d="M54.6583 56.5251C49.4667 61.2792 42.5833 64.1667 35 64.1667C27.4167 64.1667 20.5333 61.2792 15.3417 56.5251C15.6333 53.7834 17.3833 51.1001 20.5042 49C28.4958 43.6917 41.5625 43.6917 49.4958 49C52.6167 51.1001 54.3667 53.7834 54.6583 56.5251Z" stroke="#171717" stroke-width="2" stroke-linecap="round" stroke-linejoin="round"/>
<path d="M35 64.1666C51.1083 64.1666 64.1667 51.1083 64.1667 35C64.1667 18.8917 51.1083 5.83331 35 5.83331C18.8917 5.83331 5.83337 18.8917 5.83337 35C5.83337 51.1083 18.8917 64.1666 35 64.1666Z" stroke="#171717" stroke-width="2" stroke-linecap="round" stroke-linejoin="round"/>
</svg>
