<svg width="14" height="14" viewBox="0 0 14 14" fill="none" xmlns="http://www.w3.org/2000/svg">
<path fill-rule="evenodd" clip-rule="evenodd" d="M12.25 3.5H1.75003V5.25C2.39436 5.25 2.9167 5.77233 2.9167 6.41667V8.16667C2.9167 9.17442 2.9167 9.6783 3.03655 10.0895C3.32342 11.0737 4.093 11.8433 5.07721 12.1301C5.4884 12.25 5.99228 12.25 7.00003 12.25C8.00779 12.25 8.51166 12.25 8.92285 12.1301C9.90706 11.8433 10.6766 11.0737 10.9635 10.0895C11.0834 9.6783 11.0834 9.17442 11.0834 8.16667V6.41667C11.0834 5.77233 11.6057 5.25 12.25 5.25V3.5ZM6.5417 6.41667C6.5417 5.86438 6.09398 5.41667 5.5417 5.41667C4.98941 5.41667 4.5417 5.86438 4.5417 6.41667V9.33333C4.5417 9.88562 4.98941 10.3333 5.5417 10.3333C6.09398 10.3333 6.5417 9.88562 6.5417 9.33333V6.41667ZM9.45836 6.41667C9.45836 5.86438 9.01065 5.41667 8.45836 5.41667C7.90608 5.41667 7.45836 5.86438 7.45836 6.41667V9.33333C7.45836 9.88562 7.90608 10.3333 8.45836 10.3333C9.01065 10.3333 9.45836 9.88562 9.45836 9.33333V6.41667Z" fill="#FF3B30"/>
<path d="M5.87308 1.96618C5.93955 1.90416 6.08602 1.84936 6.28977 1.81027C6.49352 1.77119 6.74317 1.75 6.99999 1.75C7.25681 1.75 7.50646 1.77119 7.71021 1.81027C7.91396 1.84936 8.06043 1.90416 8.1269 1.96618" stroke="#FF3B30" stroke-width="2" stroke-linecap="round"/>
</svg>
