<svg width="18" height="18" viewBox="0 0 18 18" fill="none" xmlns="http://www.w3.org/2000/svg">
<path d="M12.5 11.4996H11.71L11.43 11.2296C12.63 9.82965 13.25 7.91965 12.91 5.88965C12.44 3.10965 10.12 0.889649 7.32001 0.549649C3.09001 0.029649 -0.469985 3.58965 0.0500152 7.81965C0.390015 10.6196 2.61002 12.9396 5.39002 13.4096C7.42002 13.7496 9.33002 13.1296 10.73 11.9296L11 12.2096V12.9996L15.25 17.2496C15.66 17.6596 16.33 17.6596 16.74 17.2496C17.15 16.8396 17.15 16.1696 16.74 15.7596L12.5 11.4996ZM6.50002 11.4996C4.01002 11.4996 2.00002 9.48965 2.00002 6.99965C2.00002 4.50965 4.01002 2.49965 6.50002 2.49965C8.99002 2.49965 11 4.50965 11 6.99965C11 9.48965 8.99002 11.4996 6.50002 11.4996Z" fill="#8000FF"/>
</svg>
