<svg width="15" height="15" viewBox="0 0 15 15" fill="none" xmlns="http://www.w3.org/2000/svg">
<path d="M8.83509 2.1009L9.33261 2.05115L9.33261 2.05115L8.83509 2.1009ZM10.3737 2.73821L10.0571 2.35123L10.057 2.35123L10.3737 2.73821ZM11.6402 2.80137L11.9937 2.44782L11.9937 2.44782L11.6402 2.80137ZM12.1986 3.35979L11.845 3.71335L11.845 3.71335L12.1986 3.35979ZM12.2618 4.62631L12.6487 4.94293L12.6487 4.94293L12.2618 4.62631ZM12.8991 6.16491L12.8493 6.66243L12.8493 6.66243L12.8991 6.16491ZM12.8991 8.83509L12.9489 9.3326L12.9489 9.3326L12.8991 8.83509ZM12.2619 10.3735L11.8749 10.6901L11.8749 10.6901L12.2619 10.3735ZM12.1987 11.6399L11.8451 11.2863L11.8451 11.2863L12.1987 11.6399ZM11.6402 12.1983L11.2867 11.8448L11.2867 11.8448L11.6402 12.1983ZM10.3737 12.2615L10.0571 12.6485L10.0571 12.6485L10.3737 12.2615ZM8.8351 12.8989L9.33262 12.9487L9.33262 12.9487L8.8351 12.8989ZM6.16491 12.8991L5.66739 12.9488L5.66739 12.9488L6.16491 12.8991ZM4.6263 12.2618L4.30968 11.8748L4.30968 11.8748L4.6263 12.2618ZM3.35975 12.1986L3.0062 12.5522L3.0062 12.5522L3.35975 12.1986ZM2.80135 11.6402L3.15491 11.2867L3.15491 11.2867L2.80135 11.6402ZM2.73819 10.3737L2.35121 10.0571L2.35121 10.0571L2.73819 10.3737ZM2.10089 8.83509L2.05114 9.33261L2.05114 9.33261L2.10089 8.83509ZM2.10097 6.1649L2.05122 5.66738L2.05122 5.66738L2.10097 6.1649ZM2.7383 4.62614L2.35132 4.94276L2.35132 4.94276L2.7383 4.62614ZM2.80146 3.35943L2.4479 3.00588L2.4479 3.00588L2.80146 3.35943ZM3.35978 2.8011L3.00623 2.44755L3.00623 2.44755L3.35978 2.8011ZM4.62637 2.73798L4.30975 3.12495L4.30975 3.12495L4.62637 2.73798ZM6.16492 2.10082L6.66244 2.15057L6.66244 2.15057L6.16492 2.10082ZM9.33261 2.05115C9.25874 1.3125 8.63719 0.75 7.89486 0.75V1.75C8.12343 1.75 8.31483 1.92321 8.33757 2.15065L9.33261 2.05115ZM10.057 2.35123C9.78233 2.576 9.36793 2.40435 9.33261 2.05115L8.33757 2.15065C8.45228 3.2977 9.79808 3.85517 10.6903 3.12519L10.057 2.35123ZM11.9937 2.44782C11.4688 1.92292 10.6316 1.88116 10.0571 2.35123L10.6903 3.12519C10.8672 2.98044 11.125 2.9933 11.2866 3.15493L11.9937 2.44782ZM12.5522 3.00624L11.9937 2.44782L11.2866 3.15493L11.845 3.71335L12.5522 3.00624ZM12.6487 4.94293C13.1188 4.3684 13.0771 3.53115 12.5522 3.00624L11.845 3.71335C12.0067 3.87498 12.0195 4.13278 11.8748 4.30969L12.6487 4.94293ZM12.9488 5.66739C12.5956 5.63207 12.424 5.21765 12.6487 4.94293L11.8748 4.30969C11.1448 5.20191 11.7023 6.54772 12.8493 6.66243L12.9488 5.66739ZM14.25 7.10515C14.25 6.36281 13.6875 5.74125 12.9488 5.66739L12.8493 6.66243C13.0768 6.68517 13.25 6.87657 13.25 7.10515H14.25ZM14.25 7.89493V7.10515H13.25V7.89493H14.25ZM12.9489 9.3326C13.6875 9.25875 14.25 8.63724 14.25 7.89493H13.25C13.25 8.12345 13.0768 8.31483 12.8494 8.33757L12.9489 9.3326ZM12.6488 10.0569C12.4242 9.78226 12.5957 9.36792 12.9489 9.3326L12.8494 8.33757C11.7025 8.45226 11.1449 9.79794 11.8749 10.6901L12.6488 10.0569ZM12.5523 11.9934C13.0771 11.4685 13.1189 10.6314 12.6488 10.0569L11.8749 10.6901C12.0196 10.867 12.0067 11.1247 11.8451 11.2863L12.5523 11.9934ZM11.9938 12.5519L12.5523 11.9934L11.8451 11.2863L11.2867 11.8448L11.9938 12.5519ZM10.0571 12.6485C10.6316 13.1186 11.4689 13.0768 11.9938 12.5519L11.2867 11.8448C11.125 12.0064 10.8672 12.0193 10.6903 11.8745L10.0571 12.6485ZM9.33262 12.9487C9.36795 12.5954 9.78245 12.4238 10.0571 12.6485L10.6903 11.8745C9.79802 11.1445 8.45228 11.7023 8.33759 12.8492L9.33262 12.9487ZM7.89477 14.25C8.63719 14.25 9.25876 13.6874 9.33262 12.9487L8.33759 12.8492C8.31483 13.0767 8.12335 13.25 7.89477 13.25V14.25ZM7.10515 14.25H7.89477V13.25H7.10515V14.25ZM5.66739 12.9488C5.74125 13.6875 6.36281 14.25 7.10515 14.25V13.25C6.87657 13.25 6.68517 13.0768 6.66243 12.8493L5.66739 12.9488ZM4.94292 12.6488C5.21765 12.424 5.63207 12.5956 5.66739 12.9488L6.66243 12.8493C6.54772 11.7023 5.20188 11.1448 4.30968 11.8748L4.94292 12.6488ZM3.0062 12.5522C3.53111 13.0771 4.36838 13.1188 4.94292 12.6488L4.30968 11.8748C4.13276 12.0196 3.87494 12.0067 3.71331 11.8451L3.0062 12.5522ZM2.4478 11.9938L3.0062 12.5522L3.71331 11.8451L3.15491 11.2867L2.4478 11.9938ZM2.35121 10.0571C1.88114 10.6316 1.92289 11.4689 2.4478 11.9938L3.15491 11.2867C2.99328 11.125 2.98042 10.8672 3.12517 10.6903L2.35121 10.0571ZM2.05114 9.33261C2.40433 9.36793 2.57599 9.78233 2.35121 10.0571L3.12517 10.6903C3.85514 9.79811 3.29772 8.45228 2.15065 8.33757L2.05114 9.33261ZM0.75 7.89486C0.75 8.63719 1.3125 9.25874 2.05114 9.33261L2.15065 8.33757C1.9232 8.31483 1.75 8.12344 1.75 7.89486H0.75ZM0.75 7.10522V7.89486H1.75V7.10522H0.75ZM2.05122 5.66738C1.31253 5.74125 0.75 6.36284 0.75 7.10522H1.75C1.75 6.87659 1.92324 6.68517 2.15072 6.66242L2.05122 5.66738ZM2.35132 4.94276C2.57617 5.21757 2.40444 5.63206 2.05122 5.66738L2.15072 6.66242C3.2979 6.5477 3.85527 5.20173 3.12528 4.30952L2.35132 4.94276ZM2.4479 3.00588C1.92294 3.53084 1.88122 4.36819 2.35132 4.94276L3.12528 4.30952C2.98048 4.13254 2.99335 3.87465 3.15501 3.71298L2.4479 3.00588ZM3.00623 2.44755L2.4479 3.00588L3.15501 3.71298L3.71334 3.15466L3.00623 2.44755ZM4.94299 2.351C4.36849 1.88095 3.53117 1.92261 3.00623 2.44755L3.71334 3.15466C3.87494 2.99305 4.1328 2.98018 4.30975 3.12495L4.94299 2.351ZM5.6674 2.05106C5.6321 2.40407 5.21776 2.57581 4.94299 2.351L4.30975 3.12495C5.2018 3.85481 6.54772 3.29768 6.66244 2.15057L5.6674 2.05106ZM7.10506 0.75C6.36277 0.75 5.74126 1.31246 5.6674 2.05106L6.66244 2.15057C6.68518 1.92317 6.87653 1.75 7.10506 1.75V0.75ZM7.89486 0.75H7.10506V1.75H7.89486V0.75ZM9.5 7.5C9.5 8.60457 8.60457 9.5 7.5 9.5V10.5C9.15685 10.5 10.5 9.15685 10.5 7.5H9.5ZM7.5 5.5C8.60457 5.5 9.5 6.39543 9.5 7.5H10.5C10.5 5.84315 9.15685 4.5 7.5 4.5V5.5ZM5.5 7.5C5.5 6.39543 6.39543 5.5 7.5 5.5V4.5C5.84314 4.5 4.5 5.84315 4.5 7.5H5.5ZM7.5 9.5C6.39543 9.5 5.5 8.60457 5.5 7.5H4.5C4.5 9.15685 5.84314 10.5 7.5 10.5V9.5Z" fill="white"/>
</svg>
