<svg width="22" height="22" viewBox="0 0 22 22" fill="none" xmlns="http://www.w3.org/2000/svg">
<path d="M18.6633 11.6691C18.3242 11.6691 18.04 11.4124 18.0033 11.0733C17.7833 9.05661 16.7017 7.24161 15.0333 6.08661C14.7308 5.87578 14.6575 5.46328 14.8683 5.16078C15.0792 4.85828 15.4917 4.78494 15.7942 4.99578C17.7833 6.37994 19.0667 8.54328 19.3325 10.9358C19.3692 11.3024 19.1033 11.6324 18.7367 11.6691C18.7092 11.6691 18.6908 11.6691 18.6633 11.6691Z" fill="white"/>
<path d="M3.42803 11.7149C3.40969 11.7149 3.38219 11.7149 3.36386 11.7149C2.99719 11.6783 2.73136 11.3483 2.76803 10.9816C3.01553 8.58911 4.28053 6.42577 6.25136 5.03244C6.54469 4.82161 6.96636 4.89494 7.17719 5.18827C7.38803 5.49077 7.31469 5.90327 7.02136 6.11411C5.37136 7.28744 4.29886 9.10244 4.09719 11.1099C4.06053 11.4583 3.76719 11.7149 3.42803 11.7149Z" fill="white"/>
<path d="M14.6572 19.3416C13.5297 19.8825 12.3197 20.1575 11.0547 20.1575C9.73473 20.1575 8.47889 19.8641 7.30556 19.2683C6.97556 19.1125 6.84723 18.7091 7.01223 18.3791C7.16806 18.0491 7.57139 17.9208 7.90139 18.0766C8.47889 18.37 9.09306 18.5716 9.71639 18.6908C10.5597 18.8558 11.4214 18.865 12.2647 18.7183C12.8881 18.6083 13.5022 18.4158 14.0706 18.1408C14.4097 17.985 14.8131 18.1133 14.9597 18.4525C15.1247 18.7825 14.9964 19.1858 14.6572 19.3416Z" fill="white"/>
<path d="M11.0459 1.84253C9.62511 1.84253 8.46094 2.99753 8.46094 4.42753C8.46094 5.85753 9.61594 7.01253 11.0459 7.01253C12.4759 7.01253 13.6309 5.85753 13.6309 4.42753C13.6309 2.99753 12.4759 1.84253 11.0459 1.84253Z" fill="white"/>
<path d="M4.62895 12.7141C3.20811 12.7141 2.04395 13.8691 2.04395 15.2991C2.04395 16.7291 3.19895 17.8841 4.62895 17.8841C6.05895 17.8841 7.21395 16.7291 7.21395 15.2991C7.21395 13.8691 6.04978 12.7141 4.62895 12.7141Z" fill="white"/>
<path d="M17.3711 12.7141C15.9503 12.7141 14.7861 13.8691 14.7861 15.2991C14.7861 16.7291 15.9411 17.8841 17.3711 17.8841C18.8011 17.8841 19.9561 16.7291 19.9561 15.2991C19.9561 13.8691 18.8011 12.7141 17.3711 12.7141Z" fill="white"/>
</svg>
