<svg width="28" height="28" viewBox="0 0 28 28" fill="none" xmlns="http://www.w3.org/2000/svg">
<path d="M10.5002 25.6663H17.5002C23.3335 25.6663 25.6668 23.333 25.6668 17.4997V10.4997C25.6668 4.66634 23.3335 2.33301 17.5002 2.33301H10.5002C4.66683 2.33301 2.3335 4.66634 2.3335 10.4997V17.4997C2.3335 23.333 4.66683 25.6663 10.5002 25.6663Z" stroke="#171717" stroke-width="1.5" stroke-linecap="round" stroke-linejoin="round"/>
<path d="M9.3335 22.1663H18.6668C21.0002 22.1663 22.1668 20.9997 22.1668 18.6663V9.33301C22.1668 6.99967 21.0002 5.83301 18.6668 5.83301H9.3335C7.00016 5.83301 5.8335 6.99967 5.8335 9.33301V18.6663C5.8335 20.9997 7.00016 22.1663 9.3335 22.1663Z" stroke="#171717" stroke-width="1.5" stroke-linecap="round" stroke-linejoin="round"/>
<path d="M5.8335 11.083H8.72682C10.3368 11.083 11.6435 12.3897 11.6435 13.9997C11.6435 15.6097 10.3368 16.9163 8.72682 16.9163H5.8335" stroke="#171717" stroke-width="1.5" stroke-linecap="round" stroke-linejoin="round"/>
<path d="M22.1665 11.6553H18.6665" stroke="#171717" stroke-width="1.5" stroke-linecap="round" stroke-linejoin="round"/>
<path d="M22.1665 16.333H18.6665" stroke="#171717" stroke-width="1.5" stroke-linecap="round" stroke-linejoin="round"/>
<path d="M8.40039 14H8.51706" stroke="#171717" stroke-width="1.5" stroke-miterlimit="10" stroke-linecap="round" stroke-linejoin="round"/>
</svg>
