<svg width="13" height="12" viewBox="0 0 13 12" fill="none" xmlns="http://www.w3.org/2000/svg">
<circle cx="6.5" cy="2.5" r="1.94375" stroke="white" stroke-width="0.8" stroke-linecap="round"/>
<path d="M7.88933 1.33281C8.04292 1.06679 8.27194 0.852281 8.54745 0.71642C8.82295 0.580558 9.13255 0.529442 9.4371 0.569537C9.74165 0.609632 10.0275 0.739137 10.2584 0.941674C10.4894 1.14421 10.6551 1.41068 10.7346 1.7074C10.8141 2.00411 10.8038 2.31773 10.7051 2.60861C10.6063 2.89949 10.4236 3.15455 10.1799 3.34155C9.93616 3.52855 9.64248 3.63908 9.33595 3.65917C9.02943 3.67926 8.72384 3.60801 8.45781 3.45442" stroke="white" stroke-width="0.8"/>
<path d="M5.11067 1.33281C4.95708 1.06679 4.72806 0.852281 4.45255 0.71642C4.17705 0.580558 3.86745 0.529442 3.5629 0.569537C3.25835 0.609632 2.97253 0.739137 2.74158 0.941674C2.51063 1.14421 2.34493 1.41068 2.26542 1.7074C2.18592 2.00411 2.19618 2.31773 2.29492 2.60861C2.39366 2.89949 2.57644 3.15455 2.82014 3.34155C3.06384 3.52855 3.35752 3.63908 3.66405 3.65917C3.97057 3.67926 4.27616 3.60801 4.54219 3.45442" stroke="white" stroke-width="0.8"/>
<path d="M6.5 6.01562C9.52349 6.01562 10.4195 8.33651 10.685 9.7121C10.7897 10.2544 10.3492 10.7031 9.79687 10.7031H3.20313C2.65084 10.7031 2.21028 10.2544 2.31496 9.7121C2.58049 8.33651 3.47651 6.01562 6.5 6.01562Z" stroke="white" stroke-width="0.8" stroke-linecap="round"/>
<path d="M12.1375 8.05957L12.5221 7.94979L12.5221 7.94979L12.1375 8.05957ZM7.34912 6.08274L7.05373 5.81304L6.55738 6.35666L7.28355 6.47733L7.34912 6.08274ZM10.5477 9.14062L10.1635 9.25179L10.247 9.54062H10.5477V9.14062ZM9.23421 5.63438C9.98312 5.63438 10.5206 5.97674 10.9232 6.46723C11.3349 6.96871 11.5948 7.61572 11.7529 8.16936L12.5221 7.94979C12.3502 7.34732 12.0522 6.58173 11.5416 5.95964C11.0219 5.32656 10.2727 4.83437 9.23421 4.83437V5.63438ZM7.64452 6.35245C8.03397 5.9259 8.54249 5.63438 9.23421 5.63438V4.83437C8.28016 4.83437 7.56745 5.25038 7.05373 5.81304L7.64452 6.35245ZM7.28355 6.47733C9.07567 6.77515 9.83421 8.11366 10.1635 9.25179L10.932 9.02946C10.5634 7.75565 9.64634 6.05901 7.41469 5.68815L7.28355 6.47733ZM11.2542 8.74062H10.5477V9.54062H11.2542V8.74062ZM11.7529 8.16936C11.8299 8.43942 11.627 8.74062 11.2542 8.74062V9.54062C12.0647 9.54062 12.7698 8.81753 12.5221 7.94979L11.7529 8.16936Z" fill="white"/>
<path d="M5.65076 6.08274L5.71633 6.47733L6.4425 6.35666L5.94616 5.81304L5.65076 6.08274ZM0.862371 8.05957L1.24701 8.16936L1.24701 8.16936L0.862371 8.05957ZM2.45216 9.14062V9.54062H2.75284L2.8364 9.25179L2.45216 9.14062ZM3.76568 5.63438C4.45739 5.63438 4.96591 5.9259 5.35536 6.35245L5.94616 5.81304C5.43244 5.25038 4.71972 4.83437 3.76568 4.83437V5.63438ZM1.24701 8.16936C1.40504 7.61572 1.66502 6.96871 2.07668 6.46723C2.47931 5.97674 3.01677 5.63438 3.76568 5.63438V4.83437C2.72721 4.83437 1.97801 5.32656 1.45833 5.95964C0.947678 6.58172 0.649699 7.34732 0.477734 7.94978L1.24701 8.16936ZM1.74567 8.74062C1.37288 8.74062 1.16992 8.43942 1.24701 8.16936L0.477734 7.94978C0.230048 8.81752 0.935207 9.54062 1.74567 9.54062V8.74062ZM2.45216 8.74062H1.74567V9.54062H2.45216V8.74062ZM2.8364 9.25179C3.16567 8.11366 3.92422 6.77515 5.71633 6.47733L5.58519 5.68815C3.35354 6.05901 2.43644 7.75565 2.06792 9.02946L2.8364 9.25179Z" fill="white"/>
</svg>
